# xmcd
#
# Track frame offsets: 
#        150
#        14574
#        30942
#        53667
#        83217
#        111735
#        130932
#        149372
#        182020
#        216973
#        255948
#
# Disc length: 3989 seconds
#
# Revision: 0
# Processed by: cddbd v1.5.2PL0 Copyright (c) Steve Scherf et al.
# Submitted via: ExactAudioCopyFreeDBPlugin 1.0
#
DISCID=970f930b
DTITLE=Blindstone - Live in Denmark
DYEAR=2015
DGENRE=Rock
TTITLE0=FREEDOM'S CALLING
TTITLE1=TEMPLE TRIPPIN'
TTITLE2=ROCK YOUR MOJO
TTITLE3=LAND OF 1000 NIGHTS
TTITLE4=KARMA
TTITLE5=STRUCK DOWN BY THE BLUES
TTITLE6=WASTE A LITTLE TIME ON ME
TTITLE7=KEEP THE ROCK ALIVE
TTITLE8=STONE FREE
TTITLE9=ARE YOU EXPERIENCED
TTITLE10=GM1 JAM
EXTD=
EXTT0=
EXTT1=
EXTT2=
EXTT3=
EXTT4=
EXTT5=
EXTT6=
EXTT7=
EXTT8=
EXTT9=
EXTT10=
PLAYORDER=
